<mxfile host="65bd71144e">
    <diagram id="g-q7hjlXNTw_cW3RjOi9" name="Page-1">
        <mxGraphModel dx="2944" dy="834" grid="0" gridSize="14" guides="1" tooltips="1" connect="1" arrows="1" fold="1" page="1" pageScale="1" pageWidth="1654" pageHeight="2336" background="#ffffff" math="0" shadow="0">
            <root>
                <mxCell id="0"/>
                <mxCell id="1" parent="0"/>
                <mxCell id="38" value="" style="whiteSpace=wrap;html=1;labelBackgroundColor=none;strokeColor=#3700CC;fontColor=#ffffff;fillColor=none;" vertex="1" parent="1">
                    <mxGeometry x="-553" y="84" width="644" height="476" as="geometry"/>
                </mxCell>
                <mxCell id="23" value="" style="whiteSpace=wrap;html=1;labelBackgroundColor=none;strokeColor=#3700CC;fontColor=#ffffff;fillColor=none;" vertex="1" parent="1">
                    <mxGeometry x="126" y="84" width="644" height="476" as="geometry"/>
                </mxCell>
                <mxCell id="3" value="AWS Account" style="points=[[0,0],[0.25,0],[0.5,0],[0.75,0],[1,0],[1,0.25],[1,0.5],[1,0.75],[1,1],[0.75,1],[0.5,1],[0.25,1],[0,1],[0,0.75],[0,0.5],[0,0.25]];outlineConnect=0;gradientColor=none;html=1;whiteSpace=wrap;fontSize=12;fontStyle=0;container=1;pointerEvents=0;collapsible=0;recursiveResize=0;shape=mxgraph.aws4.group;grIcon=mxgraph.aws4.group_account;strokeColor=#CD2264;fillColor=none;verticalAlign=top;align=left;spacingLeft=30;fontColor=#CD2264;dashed=0;" vertex="1" parent="1">
                    <mxGeometry x="180" y="130" width="548" height="388" as="geometry"/>
                </mxCell>
                <mxCell id="21" style="edgeStyle=none;html=1;entryX=1;entryY=1;entryDx=0;entryDy=0;entryPerimeter=0;strokeColor=#18141D;fontColor=#18141D;" edge="1" parent="3" source="2" target="20">
                    <mxGeometry relative="1" as="geometry"/>
                </mxCell>
                <mxCell id="22" style="edgeStyle=none;html=1;entryX=0;entryY=1;entryDx=0;entryDy=0;entryPerimeter=0;strokeColor=#18141D;fontColor=#18141D;" edge="1" parent="3" source="2" target="19">
                    <mxGeometry relative="1" as="geometry"/>
                </mxCell>
                <mxCell id="2" value="Terraform" style="shape=image;verticalLabelPosition=bottom;labelBackgroundColor=none;verticalAlign=top;aspect=fixed;imageAspect=0;image=https://www.svgrepo.com/show/376353/terraform.svg;fontColor=#18141D;clipPath=inset(18.33% 18% 18% 18.33%);" vertex="1" parent="3">
                    <mxGeometry x="184" y="136" width="81" height="81" as="geometry"/>
                </mxCell>
                <mxCell id="15" style="edgeStyle=none;html=1;strokeColor=#18141D;fontColor=#18141D;" edge="1" parent="3" source="7" target="9">
                    <mxGeometry relative="1" as="geometry"/>
                </mxCell>
                <mxCell id="16" value="Triggers&amp;nbsp; CodeBuild Project" style="edgeLabel;html=1;align=center;verticalAlign=middle;resizable=0;points=[];fontColor=#18141D;labelBackgroundColor=none;" vertex="1" connectable="0" parent="15">
                    <mxGeometry x="0.2971" relative="1" as="geometry">
                        <mxPoint x="-33" y="8" as="offset"/>
                    </mxGeometry>
                </mxCell>
                <mxCell id="7" value="CodeCommit" style="sketch=0;points=[[0,0,0],[0.25,0,0],[0.5,0,0],[0.75,0,0],[1,0,0],[0,1,0],[0.25,1,0],[0.5,1,0],[0.75,1,0],[1,1,0],[0,0.25,0],[0,0.5,0],[0,0.75,0],[1,0.25,0],[1,0.5,0],[1,0.75,0]];outlineConnect=0;fontColor=#232F3E;gradientColor=#4D72F3;gradientDirection=north;fillColor=#3334B9;strokeColor=#ffffff;dashed=0;verticalLabelPosition=bottom;verticalAlign=top;align=center;html=1;fontSize=12;fontStyle=0;aspect=fixed;shape=mxgraph.aws4.resourceIcon;resIcon=mxgraph.aws4.codecommit;" vertex="1" parent="3">
                    <mxGeometry x="58" y="276" width="68" height="68" as="geometry"/>
                </mxCell>
                <mxCell id="17" style="edgeStyle=none;html=1;entryX=1;entryY=0.75;entryDx=0;entryDy=0;strokeColor=#18141D;fontColor=#18141D;" edge="1" parent="3" source="9" target="2">
                    <mxGeometry relative="1" as="geometry"/>
                </mxCell>
                <mxCell id="18" value="Runs terraform&lt;br&gt;(or tofu)" style="edgeLabel;html=1;align=center;verticalAlign=middle;resizable=0;points=[];fontColor=#18141D;labelBackgroundColor=none;" vertex="1" connectable="0" parent="17">
                    <mxGeometry x="-0.0664" y="1" relative="1" as="geometry">
                        <mxPoint x="-1" y="-7" as="offset"/>
                    </mxGeometry>
                </mxCell>
                <mxCell id="9" value="CodeBuild" style="sketch=0;points=[[0,0,0],[0.25,0,0],[0.5,0,0],[0.75,0,0],[1,0,0],[0,1,0],[0.25,1,0],[0.5,1,0],[0.75,1,0],[1,1,0],[0,0.25,0],[0,0.5,0],[0,0.75,0],[1,0.25,0],[1,0.5,0],[1,0.75,0]];outlineConnect=0;fontColor=#232F3E;gradientColor=#4D72F3;gradientDirection=north;fillColor=#3334B9;strokeColor=#ffffff;dashed=0;verticalLabelPosition=bottom;verticalAlign=top;align=center;html=1;fontSize=12;fontStyle=0;aspect=fixed;shape=mxgraph.aws4.resourceIcon;resIcon=mxgraph.aws4.codebuild;labelBackgroundColor=none;" vertex="1" parent="3">
                    <mxGeometry x="352" y="276" width="68" height="68" as="geometry"/>
                </mxCell>
                <mxCell id="19" value="S3Bucket&lt;br&gt;Statefiles" style="sketch=0;points=[[0,0,0],[0.25,0,0],[0.5,0,0],[0.75,0,0],[1,0,0],[0,1,0],[0.25,1,0],[0.5,1,0],[0.75,1,0],[1,1,0],[0,0.25,0],[0,0.5,0],[0,0.75,0],[1,0.25,0],[1,0.5,0],[1,0.75,0]];outlineConnect=0;fontColor=#232F3E;gradientColor=#60A337;gradientDirection=north;fillColor=#277116;strokeColor=#ffffff;dashed=0;verticalLabelPosition=bottom;verticalAlign=top;align=center;html=1;fontSize=12;fontStyle=0;aspect=fixed;shape=mxgraph.aws4.resourceIcon;resIcon=mxgraph.aws4.s3;labelBackgroundColor=none;" vertex="1" parent="3">
                    <mxGeometry x="265" y="26" width="60" height="60" as="geometry"/>
                </mxCell>
                <mxCell id="20" value="DynamoDB&lt;br&gt;Statelocks" style="sketch=0;points=[[0,0,0],[0.25,0,0],[0.5,0,0],[0.75,0,0],[1,0,0],[0,1,0],[0.25,1,0],[0.5,1,0],[0.75,1,0],[1,1,0],[0,0.25,0],[0,0.5,0],[0,0.75,0],[1,0.25,0],[1,0.5,0],[1,0.75,0]];outlineConnect=0;fontColor=#232F3E;gradientColor=#4D72F3;gradientDirection=north;fillColor=#3334B9;strokeColor=#ffffff;dashed=0;verticalLabelPosition=bottom;verticalAlign=top;align=center;html=1;fontSize=12;fontStyle=0;aspect=fixed;shape=mxgraph.aws4.resourceIcon;resIcon=mxgraph.aws4.dynamodb;labelBackgroundColor=none;" vertex="1" parent="3">
                    <mxGeometry x="126" y="26" width="56" height="56" as="geometry"/>
                </mxCell>
                <mxCell id="13" style="edgeStyle=none;html=1;strokeColor=#18141D;fontColor=#18141D;" edge="1" parent="1" source="6" target="7">
                    <mxGeometry relative="1" as="geometry"/>
                </mxCell>
                <mxCell id="14" value="Mirrors to CodeCommit" style="edgeLabel;html=1;align=center;verticalAlign=middle;resizable=0;points=[];fontColor=#18141D;labelBackgroundColor=none;" vertex="1" connectable="0" parent="13">
                    <mxGeometry x="-0.3011" y="2" relative="1" as="geometry">
                        <mxPoint x="-4" as="offset"/>
                    </mxGeometry>
                </mxCell>
                <mxCell id="6" value="GitLab" style="shape=image;verticalLabelPosition=bottom;labelBackgroundColor=none;verticalAlign=top;aspect=fixed;imageAspect=0;image=data:image/svg+xml,PHN2ZyB4bWxucz0iaHR0cDovL3d3dy53My5vcmcvMjAwMC9zdmciIHZpZXdCb3g9IjAgMCAzODAgMzgwIj48ZGVmcz48c3R5bGU+LmNscy0xe2ZpbGw6I2UyNDMyOTt9LmNscy0ye2ZpbGw6I2ZjNmQyNjt9LmNscy0ze2ZpbGw6I2ZjYTMyNjt9PC9zdHlsZT48L2RlZnM+PGcgaWQ9IkxPR08iPjxwYXRoIGQ9Ik0yODIuODMsMTcwLjczbC0uMjctLjY5LTI2LjE0LTY4LjIyYTYuODEsNi44MSwwLDAsMC0yLjY5LTMuMjQsNyw3LDAsMCwwLTgsLjQzLDcsNywwLDAsMC0yLjMyLDMuNTJsLTE3LjY1LDU0SDE1NC4yOWwtMTcuNjUtNTRBNi44Niw2Ljg2LDAsMCwwLDEzNC4zMiw5OWE3LDcsMCwwLDAtOC0uNDMsNi44Nyw2Ljg3LDAsMCwwLTIuNjksMy4yNEw5Ny40NCwxNzBsLS4yNi42OWE0OC41NCw0OC41NCwwLDAsMCwxNi4xLDU2LjFsLjA5LjA3LjI0LjE3LDM5LjgyLDI5LjgyLDE5LjcsMTQuOTEsMTIsOS4wNmE4LjA3LDguMDcsMCwwLDAsOS43NiwwbDEyLTkuMDYsMTkuNy0xNC45MSw0MC4wNi0zMCwuMS0uMDhBNDguNTYsNDguNTYsMCwwLDAsMjgyLjgzLDE3MC43M1oiIGNsYXNzPSJjbHMtMSIvPjxwYXRoIGQ9Ik0yODIuODMsMTcwLjczbC0uMjctLjY5YTg4LjMsODguMywwLDAsMC0zNS4xNSwxNS44TDE5MCwyMjkuMjVjMTkuNTUsMTQuNzksMzYuNTcsMjcuNjQsMzYuNTcsMjcuNjRsNDAuMDYtMzAsLjEtLjA4QTQ4LjU2LDQ4LjU2LDAsMCwwLDI4Mi44MywxNzAuNzNaIiBjbGFzcz0iY2xzLTIiLz48cGF0aCBkPSJNMTUzLjQzLDI1Ni44OWwxOS43LDE0LjkxLDEyLDkuMDZhOC4wNyw4LjA3LDAsMCwwLDkuNzYsMGwxMi05LjA2LDE5LjctMTQuOTFTMjA5LjU1LDI0NCwxOTAsMjI5LjI1QzE3MC40NSwyNDQsMTUzLjQzLDI1Ni44OSwxNTMuNDMsMjU2Ljg5WiIgY2xhc3M9ImNscy0zIi8+PHBhdGggZD0iTTEzMi41OCwxODUuODRBODguMTksODguMTksMCwwLDAsOTcuNDQsMTcwbC0uMjYuNjlhNDguNTQsNDguNTQsMCwwLDAsMTYuMSw1Ni4xbC4wOS4wNy4yNC4xNywzOS44MiwyOS44MnMxNy0xMi44NSwzNi41Ny0yNy42NFoiIGNsYXNzPSJjbHMtMiIvPjwvZz48L3N2Zz4=;fontColor=#18141D;clipPath=inset(22.67% 21.33% 22.67% 21.33%);" vertex="1" parent="1">
                    <mxGeometry x="404" y="574" width="70.63" height="67.35" as="geometry"/>
                </mxCell>
                <mxCell id="11" style="edgeStyle=none;html=1;entryX=0.25;entryY=1;entryDx=0;entryDy=0;fontColor=#18141D;strokeColor=#18141D;" edge="1" parent="1" source="10" target="6">
                    <mxGeometry relative="1" as="geometry"/>
                </mxCell>
                <mxCell id="12" value="Pushes to repo (any provider)" style="edgeLabel;html=1;align=center;verticalAlign=middle;resizable=0;points=[];fontColor=#18141D;labelBackgroundColor=none;" vertex="1" connectable="0" parent="11">
                    <mxGeometry x="-0.0459" relative="1" as="geometry">
                        <mxPoint x="1" as="offset"/>
                    </mxGeometry>
                </mxCell>
                <mxCell id="10" value="Application Developer" style="shape=umlActor;verticalLabelPosition=bottom;verticalAlign=top;html=1;outlineConnect=0;labelBackgroundColor=none;fontColor=#18141D;strokeColor=#18141D;" vertex="1" parent="1">
                    <mxGeometry x="350" y="756" width="30" height="60" as="geometry"/>
                </mxCell>
                <mxCell id="24" value="Template per account and region" style="text;strokeColor=none;align=left;fillColor=none;html=1;verticalAlign=middle;whiteSpace=wrap;rounded=0;labelBackgroundColor=none;fontColor=#18141D;" vertex="1" parent="1">
                    <mxGeometry x="140" y="91" width="212" height="30" as="geometry"/>
                </mxCell>
                <mxCell id="39" value="Template per module" style="text;strokeColor=none;align=left;fillColor=none;html=1;verticalAlign=middle;whiteSpace=wrap;rounded=0;labelBackgroundColor=none;fontColor=#18141D;" vertex="1" parent="1">
                    <mxGeometry x="-541" y="91" width="212" height="30" as="geometry"/>
                </mxCell>
                <mxCell id="40" value="CodeCommit" style="sketch=0;points=[[0,0,0],[0.25,0,0],[0.5,0,0],[0.75,0,0],[1,0,0],[0,1,0],[0.25,1,0],[0.5,1,0],[0.75,1,0],[1,1,0],[0,0.25,0],[0,0.5,0],[0,0.75,0],[1,0.25,0],[1,0.5,0],[1,0.75,0]];outlineConnect=0;fontColor=#232F3E;gradientColor=#4D72F3;gradientDirection=north;fillColor=#3334B9;strokeColor=#ffffff;dashed=0;verticalLabelPosition=bottom;verticalAlign=top;align=center;html=1;fontSize=12;fontStyle=0;aspect=fixed;shape=mxgraph.aws4.resourceIcon;resIcon=mxgraph.aws4.codecommit;" vertex="1" parent="1">
                    <mxGeometry x="-125" y="359" width="68" height="68" as="geometry"/>
                </mxCell>
                <mxCell id="41" value="CodeBuild" style="sketch=0;points=[[0,0,0],[0.25,0,0],[0.5,0,0],[0.75,0,0],[1,0,0],[0,1,0],[0.25,1,0],[0.5,1,0],[0.75,1,0],[1,1,0],[0,0.25,0],[0,0.5,0],[0,0.75,0],[1,0.25,0],[1,0.5,0],[1,0.75,0]];outlineConnect=0;fontColor=#232F3E;gradientColor=#4D72F3;gradientDirection=north;fillColor=#3334B9;strokeColor=#ffffff;dashed=0;verticalLabelPosition=bottom;verticalAlign=top;align=center;html=1;fontSize=12;fontStyle=0;aspect=fixed;shape=mxgraph.aws4.resourceIcon;resIcon=mxgraph.aws4.codebuild;labelBackgroundColor=none;" vertex="1" parent="1">
                    <mxGeometry x="-439" y="212" width="68" height="68" as="geometry"/>
                </mxCell>
                <mxCell id="45" style="edgeStyle=none;html=1;entryX=0;entryY=1;entryDx=0;entryDy=0;entryPerimeter=0;strokeColor=#18141D;fontColor=#18141D;" edge="1" parent="1" source="44" target="40">
                    <mxGeometry relative="1" as="geometry"/>
                </mxCell>
                <mxCell id="51" value="&lt;span style=&quot;&quot;&gt;Mirrors to CodeCommit&lt;/span&gt;" style="edgeLabel;html=1;align=center;verticalAlign=middle;resizable=0;points=[];fontColor=#18141D;labelBackgroundColor=none;" vertex="1" connectable="0" parent="45">
                    <mxGeometry x="-0.0038" y="-1" relative="1" as="geometry">
                        <mxPoint as="offset"/>
                    </mxGeometry>
                </mxCell>
                <mxCell id="44" value="GitLab" style="shape=image;verticalLabelPosition=bottom;labelBackgroundColor=none;verticalAlign=top;aspect=fixed;imageAspect=0;image=data:image/svg+xml,PHN2ZyB4bWxucz0iaHR0cDovL3d3dy53My5vcmcvMjAwMC9zdmciIHZpZXdCb3g9IjAgMCAzODAgMzgwIj48ZGVmcz48c3R5bGU+LmNscy0xe2ZpbGw6I2UyNDMyOTt9LmNscy0ye2ZpbGw6I2ZjNmQyNjt9LmNscy0ze2ZpbGw6I2ZjYTMyNjt9PC9zdHlsZT48L2RlZnM+PGcgaWQ9IkxPR08iPjxwYXRoIGQ9Ik0yODIuODMsMTcwLjczbC0uMjctLjY5LTI2LjE0LTY4LjIyYTYuODEsNi44MSwwLDAsMC0yLjY5LTMuMjQsNyw3LDAsMCwwLTgsLjQzLDcsNywwLDAsMC0yLjMyLDMuNTJsLTE3LjY1LDU0SDE1NC4yOWwtMTcuNjUtNTRBNi44Niw2Ljg2LDAsMCwwLDEzNC4zMiw5OWE3LDcsMCwwLDAtOC0uNDMsNi44Nyw2Ljg3LDAsMCwwLTIuNjksMy4yNEw5Ny40NCwxNzBsLS4yNi42OWE0OC41NCw0OC41NCwwLDAsMCwxNi4xLDU2LjFsLjA5LjA3LjI0LjE3LDM5LjgyLDI5LjgyLDE5LjcsMTQuOTEsMTIsOS4wNmE4LjA3LDguMDcsMCwwLDAsOS43NiwwbDEyLTkuMDYsMTkuNy0xNC45MSw0MC4wNi0zMCwuMS0uMDhBNDguNTYsNDguNTYsMCwwLDAsMjgyLjgzLDE3MC43M1oiIGNsYXNzPSJjbHMtMSIvPjxwYXRoIGQ9Ik0yODIuODMsMTcwLjczbC0uMjctLjY5YTg4LjMsODguMywwLDAsMC0zNS4xNSwxNS44TDE5MCwyMjkuMjVjMTkuNTUsMTQuNzksMzYuNTcsMjcuNjQsMzYuNTcsMjcuNjRsNDAuMDYtMzAsLjEtLjA4QTQ4LjU2LDQ4LjU2LDAsMCwwLDI4Mi44MywxNzAuNzNaIiBjbGFzcz0iY2xzLTIiLz48cGF0aCBkPSJNMTUzLjQzLDI1Ni44OWwxOS43LDE0LjkxLDEyLDkuMDZhOC4wNyw4LjA3LDAsMCwwLDkuNzYsMGwxMi05LjA2LDE5LjctMTQuOTFTMjA5LjU1LDI0NCwxOTAsMjI5LjI1QzE3MC40NSwyNDQsMTUzLjQzLDI1Ni44OSwxNTMuNDMsMjU2Ljg5WiIgY2xhc3M9ImNscy0zIi8+PHBhdGggZD0iTTEzMi41OCwxODUuODRBODguMTksODguMTksMCwwLDAsOTcuNDQsMTcwbC0uMjYuNjlhNDguNTQsNDguNTQsMCwwLDAsMTYuMSw1Ni4xbC4wOS4wNy4yNC4xNywzOS44MiwyOS44MnMxNy0xMi44NSwzNi41Ny0yNy42NFoiIGNsYXNzPSJjbHMtMiIvPjwvZz48L3N2Zz4=;fontColor=#18141D;clipPath=inset(22.67% 21.33% 22.67% 21.33%);" vertex="1" parent="1">
                    <mxGeometry x="-324" y="592" width="70.63" height="67.35" as="geometry"/>
                </mxCell>
                <mxCell id="48" style="edgeStyle=none;html=1;strokeColor=#18141D;fontColor=#18141D;" edge="1" parent="1" source="47" target="44">
                    <mxGeometry relative="1" as="geometry"/>
                </mxCell>
                <mxCell id="50" value="&lt;span style=&quot;&quot;&gt;Pushes to repo (any provider)&lt;/span&gt;" style="edgeLabel;html=1;align=center;verticalAlign=middle;resizable=0;points=[];fontColor=#18141D;labelBackgroundColor=none;" vertex="1" connectable="0" parent="48">
                    <mxGeometry x="-0.0302" relative="1" as="geometry">
                        <mxPoint as="offset"/>
                    </mxGeometry>
                </mxCell>
                <mxCell id="47" value="Platform Team" style="shape=umlActor;verticalLabelPosition=bottom;verticalAlign=top;html=1;outlineConnect=0;labelBackgroundColor=none;fontColor=#18141D;strokeColor=#18141D;" vertex="1" parent="1">
                    <mxGeometry x="-398.00000000000006" y="742" width="30" height="60" as="geometry"/>
                </mxCell>
                <mxCell id="52" style="edgeStyle=none;html=1;entryX=1;entryY=0.5;entryDx=0;entryDy=0;entryPerimeter=0;strokeColor=#18141D;fontColor=#18141D;" edge="1" parent="1" source="2" target="40">
                    <mxGeometry relative="1" as="geometry"/>
                </mxCell>
                <mxCell id="53" value="Get module from branch&lt;br&gt;dev/prod" style="edgeLabel;html=1;align=center;verticalAlign=middle;resizable=0;points=[];fontColor=#18141D;labelBackgroundColor=none;" vertex="1" connectable="0" parent="52">
                    <mxGeometry x="0.2608" y="1" relative="1" as="geometry">
                        <mxPoint x="5" y="-20" as="offset"/>
                    </mxGeometry>
                </mxCell>
            </root>
        </mxGraphModel>
    </diagram>
</mxfile>